<?xml version="1.0" encoding="utf-8"?>
<svg class="general--icon icon__search" xmlns="http://www.w3.org/2000/svg" xmlns:xlink="http://www.w3.org/1999/xlink" x="0px" y="0px"
     viewBox="0 0 1677 1674" style="enable-background:new 0 0 1677 1674;" xml:space="preserve">
<path class="state--default" fill="#4a4a4a" d="M1158.5,709c0-123.3-43.8-228.8-131.5-316.5S833.8,261,710.5,261S481.7,304.8,394,392.5S262.5,585.7,262.5,709
	s43.8,228.8,131.5,316.5S587.2,1157,710.5,1157s228.8-43.8,316.5-131.5S1158.5,832.3,1158.5,709z M1670.5,1541
	c0,34.7-12.7,64.7-38,90s-55.3,38-90,38c-36,0-66-12.7-90-38l-343-342c-119.3,82.7-252.3,124-399,124c-95.3,0-186.5-18.5-273.5-55.5
	s-162-87-225-150s-113-138-150-225S6.5,804.3,6.5,709S25,522.5,62,435.5s87-162,150-225s138-113,225-150S615.2,5,710.5,5
	S897,23.5,984,60.5s162,87,225,150s113,138,150,225s55.5,178.2,55.5,273.5c0,146.7-41.3,279.7-124,399l343,343
	C1658.2,1475.7,1670.5,1505.7,1670.5,1541z" />
</svg>