<svg class="form__checkbox__mask" xmlns="http://www.w3.org/2000/svg" xmlns:xlink="http://www.w3.org/1999/xlink" x="0px" y="0px" viewBox="0 0 63.2 47.6" xml:space="preserve">
<rect class="checkbox--default" x="1" y="1" style="fill:#ffffff;stroke:#999898;stroke-width:2;stroke-miterlimit:10;" width="45.6" height="45.6"></rect>
<path class="checkbox--selected" style="fill:#ba9765;" d="M62.1,6.6l-5-4.6c-0.7-0.6-1.5-1-2.5-1c-1,0-1.8,0.3-2.5,1L28.1,24.3l-10.8-10c-0.7-0.6-1.5-1-2.5-1
                            c-1,0-1.8,0.3-2.5,1l-5,4.6c-0.7,0.6-1,1.4-1,2.3c0,0.9,0.3,1.7,1,2.3l13.3,12.3l5,4.6c0.7,0.6,1.5,1,2.5,1c1,0,1.8-0.3,2.5-1
                            l5-4.6l26.6-24.7c0.7-0.6,1-1.4,1-2.3C63.2,8,62.8,7.2,62.1,6.6z"></path>
                    </svg>