<?xml version="1.0" encoding="utf-8"?>
<svg version="1.1" id="Layer_1" xmlns="http://www.w3.org/2000/svg" xmlns:xlink="http://www.w3.org/1999/xlink" x="0px" y="0px"
	 viewBox="0 0 1410 1408" style="enable-background:new 0 0 1410 1408;" xml:space="preserve">
<style type="text/css">
	.st0{fill:#ba9765;}
</style>
<path class="st0" d="M1404,39c11.3,27.3,6.7,50.7-14,70L897,602v742c0,28-13,47.7-39,59c-8.7,3.3-17,5-25,5c-18,0-33-6.3-45-19
	l-256-256c-12.7-12.7-19-27.7-19-45V602L20,109C-0.6,89.7-5.3,66.3,6,39C17.4,13,37,0,65,0h1280C1373,0,1392.7,13,1404,39z"/>
</svg>