<svg xmlns="http://www.w3.org/2000/svg" width="320" height="122">
<g fill="#CDA865">
  <path d="M174.8 19.3c-2.4 3.6.4 8.7-4.6 10.2 6.3.2 3.3-7.2 5.6-9.7 2-2.9 3.8-2.4 4.8-5.5-1.5 2.5-4.5 3-5.8 5zm8.9 10.9c-5.2-2.1-8.3 2.8-8.3 4.3 1.3-.6 3.3-2.9 4.1-3.4 1.4-.9 3.6-.4 4.2-.9zm-12.3 7.7c.4.8 1.9-1 4.3-.3-1.2-.7-4.5-.7-4.3.3z"/>
  <path d="M195.9 64.2l-8.1-4.8c1.6.2 3-.5 4.4-1.5l2.5 3-1.5-3.7c1.6-1.3 3-2.7 4.7-2.7 4.6-.1 1.4 5.4 3 5.4 1.9 0 3.9-6.1-.6-8.8-4.6-2.8-8.7 1.2-12 .6l12.3-5.5h-17.9L182 45c3.2 1.5 5.6.1 7.1-1.4l5.1.7-4.2-1.7c1-1.1 1.9-1.9 2.9-1.5 1.5.6 2.4 1.9 5 1.9 4.4.1 7.7-7.8 1.8-11.3.4 5.6-2.2 5.9-6.7 2.9l1.6-2.5-2.3 2c-4.4-1.9-6.5 1.9-8.3 3.2-1.8 1.2-3.5-1.3-5.8 1.7 3.3-1.1 5 2.1 7.2 0-.9 5.6-4.2-1.7-7.4 1.1 2.8.2 4.3 2.7 6.5 2.7 4.1 0 .4-7.9 6.2-7.9l-1-.6c3.3-.3 3.4 3 8.4 3 .5.7-1.3.8-2.6.4-.2 1.1 6.7 3.4 5.1-4.5 2.2 1.2 1.7 6.1-.3 8-.4.4-.8.5-1 .2-.6-.8.9-.8 1.3-2.1-1.5 1.3-4.2 1.2-6-.4-1.8-1.7-4.5-3.7-5.7-.2-1.2 3.5-2.1 5.2-4.2 5.2-2.9 0-6-4.9-9.3-2.1 6.2.6 7.7 10.4 13.1 10.6 4.2 0 5.2-1.9 8-1.9s5.7 1.5 5.7 5.1c0 2.2-1.2 3.4-1.2 3.4s.9-1.8.4-4.1c-.4-2.2-2.3-3.5-4.7-3.5-3.4 0-6.2 5.6-9.9 5.6-7.6 0-9.5-14.6-17.5-12.4 5.8 3.9 6.5 10.3 9.6 12.7 3.2 2.5 7 1.5 9.1 3.3.9.7 1.2 2 1.5 3.4h-.7c-.3-.7-.6-1.4-1.3-1.9-1.8-1.9-7.3-1.1-9.8-3.8-2.5-2.7-4.3-10.9-9.3-12.1 4.3 2.8 5.3 9.9 8.4 13.4 3.1 3.5 7.2 1.6 9 3.5l.9.9h-3.5c-.3-.1-.6-.1-1-.1-.6 0-1.2 0-1.7.1h-4.9c-.6-.2-1.2-.5-1.8-1.1-2.4-2.6-2.2-5.3-2-8.5.5 3 1.1 9.9 6.2 9.2-6.5-2.2-2.7-13.4-10.7-16.3-.9-.3-.6-3.1 1.6-3.5-4.3.8-4.3-.7-1.2-3.9-1.9 1.2-3.9.8-4.4 2.2 0 0 3.5 5.5 3.5 6.6 0 1.1-2.3 5.4-2.6 5.6-.9.5-3.7.5-4.4.3-.7-.2-1.6-2.6-1.3-3.3.5-1.2 4.9-2.1 5-3.8.1-1.3-1.8-1.5-1.7-.8 1 .4 1.5 1.9-1.6 2.6l.7-1.1s-2.3 1.8-2.4 1.9c-.1.1-.7.1-1 0-.3-.1-3.6-1.7-3.1-3.3 0 0 1 .4 3.5.4s2.7-1.1 2.7-1.1-1.3.3-2.7.3c-1.4 0-2.7-.3-2.7-.3-1.1-.3.1-1.6.4-1.6h2.6c.2 0 .4-.4 0-.4-.3 0-1.9 0-2-.5-.2-.7-.7-5-.7-5s.6-1.4.1-1.8c-.5-.5-.7-.2-.7-.2 1.1 6-3.6 9.8-6.2 9.1l-.3-.1c.6.4 1.4.9 2.4 1.2-4.9 1-7-2-7.7-3.8-.4.2-.4 1.4-.4 2.1-1-1.1-1.6-2.9-.7-4.1-1.3.6-1.3.8-1.3.8 0-1 1.9-1.7 2.8-2.9.9-1.2.7-3.1-1.2-3.8.1 1.9-.8 3.1-2.7 3.8-1.8.6-1.5-1.1-3.2-.7 2.8.6 2.6 4.5 5.4 6-3.7-.9-4.3-5.9-8.8-5.4 2.6-3.7 6.7-.5 8.4-3.1-4.4 1-7.3-2.7-7.9-6.7-.8-6.2-6-3.1-5.9-6.2 2.6 1.2 8.5-3.3 10.2 1.8 1.8 5.4 5.4 7.6 8.7 5.1l-14.3-14.5 1.8 6.1c-3.7.7-8.2-1.5-5.8-6.7-3.5-1.6-8.2 4.2-3.9 8.8 2 2.1 6.9 1.3 8.1 5.7l-4.6-.4 4.8 1.2 1.4 4.2-11-5.2 6.8 7.9c-4 2.1-5-3.9-10.1-3.8-3.6.1-7.6 3.8-6 8.1 5.4-3.3 7.1-.9 9.4 1.3l-3.3 1.8 3.9-1.2c1.4 1.3 3.1 2.4 5.9 2.2 4.7-.3 8.8-1.8 9.8-.6.8 1-.1 1.5-1.8 1.5h-22.2l8.9 4.8c-.9.7-3.3 3.7-5.1 3.7-1.7 0-5.6-2.6-6.6 2 4-.7 6 8 14.3 1.1l-3.9 6.5h-18.4v2.2h110.2v-2.2h-18.9zM191.6 38c2 .9-4.3 7-6.2 6.8 4-1.2 4.1-7.7 6.2-6.8zm.8 18.2c1.4-3.8 5.9-5.5 7.8-2.1.1.2-.1.3-.4 0-2.3-2.3-5.3-.1-7.2 2.3-.2.3-.3.1-.2-.2zm-65-40.9c-1.2 2-.9 5.8 3.7 6.9-7.9 1.8-7.7-7.2-3.7-6.9zM121 39.6c-3.6-2-6.8.4-6.8.4 1-3.6 7.7-3.9 6.8-.4zm1.6-1.4c-.5-.7-1-1.3-1.6-1.5-.8-.3-1.6-.2-2.3-.2-.9 0-1.7.1-2-.5-.2-.4 0-.8.5-1.1.5-.4 1.2-.6 1.9-.6.8-.1 1.5.1 2 .6.5.4.6.4.7.4.1-.1.1-.3.1-.5v-.2c1.3.2 1.9 1 2.6 1.8 1.1 1.3 2.8 3.4 7 2.6-1.1 3.6-7 2.5-8.9-.8zm3.3 5c-.2-1.6 7.9-2.8 7.9-.5.1 2.1-7.6 2.3-7.9.5zm41.9 10c-2.7 5.8 3.9 9.4 5.2 10.5.1.1.3.3.4.5h-2.2c-.7-1.4-1.4-2.4-2.1-2.8.5.8.9 1.8 1.3 2.8h-1.1c-1.6-3-4.2-5.4-1.5-11zm-.7 11h-.9l-1.1-3.2c.8.5 1.4 1.7 2 3.2zm-2.7 0h-1c.4-1.7.7-3.6-.4-5.8 1.7 1.4 1.7 3.6 1.4 5.8zm-1.8 0h-.9c.4-1.4.5-2.8-.6-4.9 1.6 1.5 1.7 3.2 1.5 4.9zm-6.9 0c.5-2.4-.4-3.1-2.5-5.3 3 2.1 4.1 3.5 3.9 5.3h-1.4zm2.5-4.2c1.5 1.8 1.9 3 2 4.2h-.9c0-1.1-.3-2.4-1.1-4.2zm-.2-4.1c1.3 0 3.8-.1 3.9-.1.4 0 .4.1.4.2s-.2.8-.4.9c0 0-2.5.6-3.9.5-1.4.1-3.9-.5-3.9-.5-.3-.1-.4-.7-.4-.9 0-.1.1-.2.4-.2 0 .1 2.6.1 3.9.1zm-3.8-9.1c-1.1.4-1.3 2.1 1.9 2.8-1 .1-3.5-.3-3.6-2-.1-1.3 1.7-1.5 1.7-.8zm-3.1 3c2.9.2 6 1.6 6 1.6.3.7-.5 3.1-1.3 3.3-.7.2-4.2-.2-4.7-1.6 2.1.6 2.2-.2 2.2-.2s-1.9 0-2.7-1.3c1.5.5 2.2 0 2.2 0s-2.9-1.1-3-1.8h1.3zm-2.9 3.2l.1-.6c.2 6.9 5.2 8 5.2 11.5v.3h-.9c.1-.6-.1-1.3-.5-1.9-3.3-4.4-3.4-5.3-3.4-5.3.3 3.3 2.4 3.7 2.9 7.2h-1.4c-.5-2.6-3.1-3.6-2-11.2zm.3 11.2h-2.4l1.3-2.1c.7.9 1 1.5 1.1 2.1zm-3.9 0H143c2.4-4.4 1.1-11.6 3.1-13.8-1.4 2.5.8 8.7-1.5 13.8zm.7-16.7c-1 .9-5.4 4.8-4 15.4 1.4-2.3.2-11 4.3-14.1-2.9 3.5-1.4 9.8-3.5 15.4h-2c.6-4.5-2-11.4 5.2-16.7zm-8.2 16.7h-.9c.7-.9 1.2-2.1 1.7-3.4 0 .8-.2 2.1-.8 3.4zm4.6-18.3c.8.9-4.5 3.3-7.1 2.4 4.4.1 6.2-3.3 7.1-2.4zm-6.1 3.5c3 0 4.8-1 5.5-1.7-.3 2.2-2.6 2.9-5.5 2.9s-5.6-3.2-7.8-1.1c3.9-.5 4.5 3.7 8.9 2.3-3.8 4.1-6.6-3.1-11-1 2.2-5.3 6.9-1.4 9.9-1.4zM113.9 56c2.3-3.4 4 1.3 7.8-1.3 1.3 2-1.8 3.2-3.6 2.1s-3.3-1.1-4.2-.8zm11.1 2.4c-1.7 1.3-5.9 2.6-5.9-.2 4.4.9 5.4-5.4 9.4-3.6-1 .3-1.9 2.6-3.5 3.8zm12.4-1.4c0 2.4-.3 4.1-.9 5.4l-6.4 1.8h-5.7l13-7.2z"/>
  <path d="M161.6 30.7c-3.1.3-2.6 4.5-.3 4.5 2.3 0 2.7-1.1 4.4-1.1 1.8 0 2.4 1.2 3.8 1.2s2.2-1 1.6-1.9c-.9 1.5-2.5-.5-3.7-.5-1.8 0-2.6.8-3.8 1.4-1.3.7-2.6 0-2.1-.7-1-.2-1.6-1.4.1-2.9zm11.2-12.9c-3 4.4 1 9-5.3 10.6 7.4.1 3.6-6.3 6.3-9.9 2.7-3.7 5.8-2.3 6.8-6.5-1.6 3.4-6.1 3.3-7.8 5.8zm-8.6 8.5c-1.7-1.7-.9-4.7-.9-4.7s-2.7 3.3.9 4.7z"/>
  <path d="M188.6 27.6c-1.1 5.1-10.7 1.3-10.6 8.6 2-3.6 11.5-3.3 10.6-8.6zm-19 12.8c.2 1.1 2.1-1.2 5.8.4-1.2-1.9-6.1-2.1-5.8-.4zm-7.5-14.2c-3.7-6.1 5-7.5 2.5-12.6.4 4-8 8.1-2.5 12.6zm.9 23.7c-.5.4-1.7.7-2.6 1.3-.1.2-.3.7-.5.9 1 .2 3.1-1.2 3.1-2.2zm-11.9-14.1c-1.4-.3-3.2 1.2-4.9 1.9 1.6 2.3 5.2 2.5 6.7 3.3.4-.5 1.5-4.6-1.8-5.2zm-1.7 3.7c-1.5-.6-.9-3.5 1.1-3-.1.2-1 1.9-1.1 3zm1.1.3c.7-.7 1.1-2.4 1.2-2.7 1.5 1.2.1 3.2-1.2 2.7z"/>
  <path d="M156.3 33.4c-1.6 1.9-2.7-.2-4.7-.2-1.7 0-3.8 1.9-4.1.7-.3-1 1.5-2.6 3.8-2.8-2-.6-5.2 1.3-5.8 3.3-.6.1-1.2-.1-1.2-.1.8 3.4 4.3-.1 5.9-.1 1.5.1 6.1 3.4 6.1-.8zm-.4-20.7l1.7 4.5S156 19 156 22.3c0 6.4 5.3 7 4.9 4.4-3.7 1.7-3.9-3.7-2.9-4.8 0 0-.7 2.8 1.8 3.8-3.3-5.5 3.2-7.6 3.2-11.9 0-3.6-2.2-4.8-2.2-8.2.1-4 6-5.1 6-3.5 0 1.1-4.3 1.2-4.4 5.4-.1 3.9 4.3 4.8 4.2 8.6-.1 2.5-4.5 4.8-1.7 9.4l6.3-17.8-4.8 5.5c-1.5-1.9-2.8-2.1-2.8-5.6 0-3.5 3.9-4 3.9-5.6 0-1.3-1.9-1.5-3.3-1.5-2.2-.1-6 1.8-6 5.8s2.7 6.1 0 9.9l-2.3-3.5zm5.7-.9c1.7 5.5-3.9 6.9-4.4 10.5-.4-4.3 5.1-6.4 4.4-10.5zm-9.8 29.8c-.9-.6-4.1-.5-5.9-2.3 0 0-.1.4 0 .7-2.2.9-1.6 3-1.6 3s1.4-1.7 2.3-1.7c0 0-.2 1.4.2 2l.2.3c-.6-3 4.8-2 4.8-2zm-16.2-25.3l4 1.9c.1 1.4.7 2.8 2.1 4.4 1.5 1.8 5.7 2.3 5.9 6.6 1.3-1.3.3-4.3-2.6-5.9-10.7-6.3 7.3-16.1-4.2-19.6 9.9-.7 5.7 8.3 6.5 11.9 1.1 5 5.7 3.8 8.2 6.9l-2.7-15.1-2.6 10.5c-3.4-.5-2.2-5.3-2.1-9.7.2-8.3-14-5.9-12.1-1.2.7 1.8 5.5-2.2 5.5 2 0 2.8-1.8 5.3-2 8.1l-3.9-.8zm1.3-10c-1-1.2 3.8-2.5 4.7.5-2.4-1.6-4.2.1-4.7-.5z"/>
  <path d="M145.4 15c-4.7 8.9 11.5 4.8 9.4 12.4 3.4-8.2-11.2-3.7-9.4-12.4zm42.1 40.7c2.7-.1 4.8-2.7 6.4-3.7-2.2.5-3.3 2.5-6.4 2.5-4.9.1-7.5-13.9-16-11 8.7.6 8.5 12.3 16 12.2z"/>
  <path d="M151.2 26.4c-.2 0-.5-.1-.7-.2-1.1-.7-1.7-2.6-2.8-2.4.7.5.4 2.3 1.3 3.3.4.5 1.1.8 1.8.8 1.3 0 2.4-1.1 2.4-2.4 0-.8-.4-1.5-.9-1.9-.9-.7-2.1-1.1-5.6-2.3-8.4-2.9 4.2-11.4-1.6-16.2 3.2 6.9-6.1 10.9-1.3 15.8 2.1 2.2 6.7 1.8 8.3 3.4.2.2.4.5.4.9-.1.7-.6 1.2-1.3 1.2zm-7.2 5.1c-1.5 0-3.9-.8-4.8-2.8-.8 1.9 1.6 6.9 4.8 2.8zm19.8 19.8c-.1.2-.8.5-2.2 1-.2.3-.6.8-1 1.1 1.7.4 3.5-1.2 3.2-2.1zm7-14.8c.3.6.9-.5 1.8-1-1.2-.2-2 .7-1.8 1zm-1 .8c-1.7-.8-3.4-2.2-4.8-1.9-3.3.7-2.2 4.7-1.9 5.2 1.5-.9 5.1-1 6.7-3.3zm-3.2 1.7s-1-2.8-1.1-3c2-.5 2.6 2.4 1.1 3zm-2.4-2.4c.1.3.6 2 1.2 2.7-1.2.5-2.6-1.6-1.2-2.7zm12.9-9.1c-1.5 1.6-1.4 3-3.6 4.4 2.9 1.2 3-2.6 5.9-3.4 2-.6 3.5 1.8 6.3.5s1.8-6.5 3.2-8.8c1.4-2.3 5.2-4.5 7.8.2 0 0-4.5-4.4-6.6.9 1.5-1.2 3.7-1.6 3.7-.4-1.2.4-3 1.1-3.1 5.2-.1 4.8-2 5.9-3.5 6.9-2.2 1.5-7.3 1.4-8.4 4.7l17.7-7.9h-5.4c.7-4-.8-9.8 6.6-8.5.9-2-5.2-8.3-10.6-1.1l-.5-1.8c-1.4 9.4-6.5 5.7-9.5 9.1zm9.3-4.8c.9 1.6-1.8 4.4-1.8 4.4.7.3.7 1.3-.2 1.5-1.6.5-2.9-1.3-4.9-.8.4-.7 4.7-.6 6.9-5.1z"/>
  <path d="M142.7 34c-7.5.1-2-8.1-7.5-9.3 2.9 1.9 1.3 3.7 1.3 6.8 0 3.8 4.5 4.9 6.2 2.5zm26.1-11.1c-.9 2.3-3.2 3-4.4 5 .7 0 4.1-.8 5.4-2.9 1.2-2.1 0-8.2 4-9.7 4.2-1.6 8.5-3.9 3.6-8.9 7.5 1.9 3.3 9.9 2.4 11.1-.9 1.1-3.6 3.3-3.6 6.8 0 2.6-2.3 5.6-4.2 6 1.9.8 4.8-3.6 4.8-3.6l9.4-12.1-5.4 2.8s1.5-1.3 1.5-5.5c0-6-6.4-7.1-6.4-5.2.1 1.2 2.2 2.1 2.3 4.1.1 2-2.8 3.2-5 3.8l-1-3.3V15c-3.7 1.9-2.5 5.5-3.4 7.9z"/>
</g>
<path fill="#1e1e1e" d="M98.2 73.7H88v17.6h3.5v-6.8h6.6c5.8 0 7-2.9 7-5.4.1-2.5-1.1-5.4-6.9-5.4zM91.6 77h6.1c3.7 0 4 1 4 2.1s-.3 2.1-4 2.1h-6.1V77zm35.4 6.9V73.7h-3.5v10.2c0 3.1-1.8 4.6-5.5 4.6s-5.5-1.5-5.5-4.6V73.7H109v10.2c0 5 3.2 7.8 9 7.8s9-2.8 9-7.8zm22.9 2.1c0-2.1-1.1-3.3-2.1-4 .8-.6 1.6-1.6 1.6-3.3 0-5-5.3-5-7-5h-10.1v17.6h9c2.8 0 8.6 0 8.6-5.3zm-8.7-9.1c3.5 0 4.7.3 4.7 1.8 0 .5 0 1.8-4 1.8h-6v-3.6h5.3zm1.3 11.1h-6.7v-4.2h6.9c3.6 0 3.6 1.5 3.6 2.2 0 1.1-.6 2-3.8 2zm28.3 0h-12.2V73.7h-3.5v17.6h15.7m3.4-17.6h3.5v17.6h-3.5zm27.1 12.9l.4-.7-3.2-1.5-.4.7c-1.2 2.3-3.2 3.3-6 3.3-4.1 0-6.5-2.1-6.5-5.6 0-4.1 2.2-6.2 6.4-6.2 3 0 5 1.1 5.9 3.2l.3.8 3.1-1.4-.3-.7c-1.4-3.2-4.8-5.1-9.1-5.1-6.1 0-9.9 3.5-9.9 9.2 0 4.4 2.6 9.2 9.9 9.2 4.6-.1 7.6-1.8 9.4-5.2zm4.4-12.9h3.5v17.6h-3.5zm17.5 6.8c-3.3-.3-5.2-.6-5.2-1.9 0-1.8 2.9-2.1 4.7-2.1 3.8 0 5.2 1.6 5.9 2.4l.6.7 2.6-2.1-.4-.6c-.6-.8-3-3.6-8.6-3.6-7.2 0-8.3 3.5-8.3 5.6 0 4.2 4.7 4.7 8.5 5 3.3.3 5.5.6 5.5 2.1 0 2.3-4.5 2.4-5 2.4-4.4 0-5.8-1.8-6.6-2.9l-.5-.7-2.1 1.8-.6.6.6.6c1.4 1.6 3.5 3.9 9.1 3.9 4.1 0 8.8-1.5 8.8-5.7-.2-4.7-5.1-5.2-9-5.5zm-100.5 35.6l-5.4-12.3h-4.4v17.7h3.4v-11.4l5 11.4h2.7l5-11.4v11.4h3.4v-17.7h-4.3m13.2 10.2h10.3v-3.3h-10.3v-3.6h12.3v-3.3h-15.9v17.7h16.2v-3.4h-12.6m25.5-14.3h-8.7v17.6h8.1c6.4 0 10-3.3 10-9 0-5.3-3.6-8.6-9.4-8.6zm-.3 14.3h-4.9v-11h5.2c2.6 0 5.8.9 5.8 5.3 0 3.8-2.1 5.7-6.1 5.7zm13.7-14.3h3.5v17.6h-3.5zm15.4 0l-9.1 17.6h4l2.1-4.2h9.3l2.1 4.2h4l-9-17.6h-3.4zm-1.4 10.2l3-6 3 6h-6z"/>
</svg>
